C:\Users\Nicos\Documents\OpenSimProjects\SprintingProject\Study1\PredictiveResults\IC_pred_Sprinting_optimum_26-October-2023__23-37-47_p02_maxVel_01___IKTD_Minus_4_GRF.mot
version=1
nRows=9
nColumns=127
inDegrees=yes
endheader
time	ground_force_vx	ground_force_vy	ground_force_vz	ground_force_px	ground_force_py	ground_force_pz	ground_torque_x	ground_torque_y	ground_torque_z	1_ground_force_vx	1_ground_force_vy	1_ground_force_vz	1_ground_force_px	1_ground_force_py	1_ground_force_pz	1_ground_torque_x	1_ground_torque_y	1_ground_torque_z	2_ground_force_vx	2_ground_force_vy	2_ground_force_vz	2_ground_force_px	2_ground_force_py	2_ground_force_pz	2_ground_torque_x	2_ground_torque_y	2_ground_torque_z	3_ground_force_vx	3_ground_force_vy	3_ground_force_vz	3_ground_force_px	3_ground_force_py	3_ground_force_pz	3_ground_torque_x	3_ground_torque_y	3_ground_torque_z	4_ground_force_vx	4_ground_force_vy	4_ground_force_vz	4_ground_force_px	4_ground_force_py	4_ground_force_pz	4_ground_torque_x	4_ground_torque_y	4_ground_torque_z	5_ground_force_vx	5_ground_force_vy	5_ground_force_vz	5_ground_force_px	5_ground_force_py	5_ground_force_pz	5_ground_torque_x	5_ground_torque_y	5_ground_torque_z	6_ground_force_vx	6_ground_force_vy	6_ground_force_vz	6_ground_force_px	6_ground_force_py	6_ground_force_pz	6_ground_torque_x	6_ground_torque_y	6_ground_torque_z	7_ground_force_vx	7_ground_force_vy	7_ground_force_vz	7_ground_force_px	7_ground_force_py	7_ground_force_pz	7_ground_torque_x	7_ground_torque_y	7_ground_torque_z	8_ground_force_vx	8_ground_force_vy	8_ground_force_vz	8_ground_force_px	8_ground_force_py	8_ground_force_pz	8_ground_torque_x	8_ground_torque_y	8_ground_torque_z	9_ground_force_vx	9_ground_force_vy	9_ground_force_vz	9_ground_force_px	9_ground_force_py	9_ground_force_pz	9_ground_torque_x	9_ground_torque_y	9_ground_torque_z	10_ground_force_vx	10_ground_force_vy	10_ground_force_vz	10_ground_force_px	10_ground_force_py	10_ground_force_pz	10_ground_torque_x	10_ground_torque_y	10_ground_torque_z	11_ground_force_vx	11_ground_force_vy	11_ground_force_vz	11_ground_force_px	11_ground_force_py	11_ground_force_pz	11_ground_torque_x	11_ground_torque_y	11_ground_torque_z	12_ground_force_vx	12_ground_force_vy	12_ground_force_vz	12_ground_force_px	12_ground_force_py	12_ground_force_pz	12_ground_torque_x	12_ground_torque_y	12_ground_torque_z	13_ground_force_vx	13_ground_force_vy	13_ground_force_vz	13_ground_force_px	13_ground_force_py	13_ground_force_pz	13_ground_torque_x	13_ground_torque_y	13_ground_torque_z
0.213199	-0.000000	0.000000	-0.000000	1.147763	0.196216	0.445831	0.000000	0.000000	0.000000	-0.000000	0.000000	-0.000000	1.171122	0.215821	0.465431	0.000000	0.000000	0.000000	-0.000000	0.000000	-0.000000	1.187041	0.225362	0.462126	0.000000	0.000000	0.000000	-0.000000	0.000000	-0.000000	1.182429	0.223916	0.440061	0.000000	0.000000	0.000000	-0.000000	0.000000	-0.000000	1.225511	0.264605	0.490144	0.000000	0.000000	0.000000	-0.000000	0.000000	-0.000000	1.198043	0.239004	0.456249	0.000000	0.000000	0.000000	-0.000000	0.000000	-0.000000	1.242049	0.293573	0.432742	0.000000	0.000000	0.000000	-0.000000	0.000000	0.000000	2.477693	0.098487	0.146798	0.000000	0.000000	0.000000	-0.000000	0.000000	0.000000	2.433677	0.102647	0.125336	0.000000	0.000000	0.000000	-0.000000	0.000000	0.000000	2.401429	0.100007	0.132477	0.000000	0.000000	0.000000	-0.000000	0.000000	0.000000	2.404607	0.094777	0.152401	0.000000	0.000000	0.000000	-0.000000	0.000000	0.000000	2.315935	0.108385	0.103582	0.000000	0.000000	0.000000	-0.000000	0.000000	0.000000	2.371728	0.099265	0.136436	0.000000	0.000000	0.000000	-0.000000	0.000000	0.000000	2.252925	0.096299	0.152271	0.000000	0.000000	0.000000
0.214681	-0.000000	0.000000	-0.000000	1.169653	0.197973	0.446562	0.000000	0.000000	0.000000	-0.000000	0.000000	-0.000000	1.193081	0.217582	0.466063	0.000000	0.000000	0.000000	-0.000000	0.000000	-0.000000	1.208990	0.227122	0.462693	0.000000	0.000000	0.000000	-0.000000	0.000000	-0.000000	1.204303	0.225670	0.440646	0.000000	0.000000	0.000000	-0.000000	0.000000	-0.000000	1.247560	0.266370	0.490541	0.000000	0.000000	0.000000	-0.000000	0.000000	-0.000000	1.219974	0.240762	0.456765	0.000000	0.000000	0.000000	-0.000000	0.000000	-0.000000	1.263907	0.295323	0.433053	0.000000	0.000000	0.000000	-0.000000	0.000000	0.000000	2.492616	0.096832	0.146325	0.000000	0.000000	0.000000	-0.000000	0.000000	0.000000	2.448598	0.101113	0.124961	0.000000	0.000000	0.000000	-0.000000	0.000000	0.000000	2.416476	0.098565	0.132032	0.000000	0.000000	0.000000	-0.000000	0.000000	0.000000	2.419642	0.093265	0.151884	0.000000	0.000000	0.000000	-0.000000	0.000000	0.000000	2.331000	0.107042	0.103199	0.000000	0.000000	0.000000	-0.000000	0.000000	0.000000	2.386773	0.097808	0.135960	0.000000	0.000000	0.000000	-0.000000	0.000000	0.000000	2.267960	0.094779	0.151672	0.000000	0.000000	0.000000
0.215329	-0.000000	0.000000	-0.000000	1.179269	0.198717	0.446886	0.000000	0.000000	0.000000	-0.000000	0.000000	-0.000000	1.202723	0.218329	0.466343	0.000000	0.000000	0.000000	-0.000000	0.000000	-0.000000	1.218626	0.227869	0.462945	0.000000	0.000000	0.000000	-0.000000	0.000000	-0.000000	1.213906	0.226414	0.440906	0.000000	0.000000	0.000000	-0.000000	0.000000	-0.000000	1.257232	0.267122	0.490716	0.000000	0.000000	0.000000	-0.000000	0.000000	-0.000000	1.229598	0.241509	0.456994	0.000000	0.000000	0.000000	-0.000000	0.000000	-0.000000	1.273488	0.296068	0.433190	0.000000	0.000000	0.000000	-0.000000	0.000000	0.000000	2.499018	0.096075	0.146116	0.000000	0.000000	0.000000	-0.000000	0.000000	0.000000	2.455000	0.100412	0.124799	0.000000	0.000000	0.000000	-0.000000	0.000000	0.000000	2.422935	0.097909	0.131841	0.000000	0.000000	0.000000	-0.000000	0.000000	0.000000	2.426094	0.092578	0.151661	0.000000	0.000000	0.000000	-0.000000	0.000000	0.000000	2.337468	0.106434	0.103038	0.000000	0.000000	0.000000	-0.000000	0.000000	0.000000	2.393231	0.097147	0.135757	0.000000	0.000000	0.000000	-0.000000	0.000000	0.000000	2.274413	0.094100	0.151419	0.000000	0.000000	0.000000
0.217375	-0.000000	0.000000	-0.000000	1.209872	0.200972	0.447932	0.000000	0.000000	0.000000	-0.000000	0.000000	-0.000000	1.233394	0.220599	0.467245	0.000000	0.000000	0.000000	-0.000000	0.000000	-0.000000	1.249269	0.230142	0.463758	0.000000	0.000000	0.000000	-0.000000	0.000000	-0.000000	1.244446	0.228677	0.441743	0.000000	0.000000	0.000000	-0.000000	0.000000	-0.000000	1.287955	0.269419	0.491280	0.000000	0.000000	0.000000	-0.000000	0.000000	-0.000000	1.260195	0.243783	0.457732	0.000000	0.000000	0.000000	-0.000000	0.000000	-0.000000	1.303900	0.298347	0.433631	0.000000	0.000000	0.000000	-0.000000	0.000000	0.000000	2.518793	0.093545	0.145452	0.000000	0.000000	0.000000	-0.000000	0.000000	0.000000	2.474777	0.098072	0.124289	0.000000	0.000000	0.000000	-0.000000	0.000000	0.000000	2.442900	0.095727	0.131249	0.000000	0.000000	0.000000	-0.000000	0.000000	0.000000	2.446036	0.090301	0.150969	0.000000	0.000000	0.000000	-0.000000	0.000000	0.000000	2.357468	0.104426	0.102552	0.000000	0.000000	0.000000	-0.000000	0.000000	0.000000	2.413191	0.094960	0.135131	0.000000	0.000000	0.000000	-0.000000	0.000000	0.000000	2.294358	0.091893	0.150656	0.000000	0.000000	0.000000
0.218857	-0.000000	0.000000	-0.000000	1.232261	0.202516	0.448712	0.000000	0.000000	0.000000	-0.000000	0.000000	-0.000000	1.255817	0.222159	0.467917	0.000000	0.000000	0.000000	-0.000000	0.000000	-0.000000	1.271663	0.231707	0.464362	0.000000	0.000000	0.000000	-0.000000	0.000000	-0.000000	1.266765	0.230233	0.442367	0.000000	0.000000	0.000000	-0.000000	0.000000	-0.000000	1.310377	0.271010	0.491699	0.000000	0.000000	0.000000	-0.000000	0.000000	-0.000000	1.282544	0.245351	0.458281	0.000000	0.000000	0.000000	-0.000000	0.000000	-0.000000	1.326070	0.299926	0.433956	0.000000	0.000000	0.000000	-0.000000	0.000000	0.000000	2.532706	0.091580	0.144967	0.000000	0.000000	0.000000	-0.000000	0.000000	0.000000	2.488693	0.096255	0.123927	0.000000	0.000000	0.000000	-0.000000	0.000000	0.000000	2.456957	0.094040	0.130837	0.000000	0.000000	0.000000	-0.000000	0.000000	0.000000	2.460074	0.088547	0.150486	0.000000	0.000000	0.000000	-0.000000	0.000000	0.000000	2.371556	0.102887	0.102230	0.000000	0.000000	0.000000	-0.000000	0.000000	0.000000	2.427246	0.093279	0.134699	0.000000	0.000000	0.000000	-0.000000	0.000000	0.000000	2.308400	0.090235	0.150149	0.000000	0.000000	0.000000
0.219505	-0.000000	0.000000	-0.000000	1.242093	0.203166	0.449059	0.000000	0.000000	0.000000	-0.000000	0.000000	-0.000000	1.265660	0.222818	0.468216	0.000000	0.000000	0.000000	-0.000000	0.000000	-0.000000	1.281491	0.232369	0.464631	0.000000	0.000000	0.000000	-0.000000	0.000000	-0.000000	1.276561	0.230890	0.442644	0.000000	0.000000	0.000000	-0.000000	0.000000	-0.000000	1.320209	0.271685	0.491884	0.000000	0.000000	0.000000	-0.000000	0.000000	-0.000000	1.292350	0.246015	0.458525	0.000000	0.000000	0.000000	-0.000000	0.000000	-0.000000	1.335784	0.300597	0.434100	0.000000	0.000000	0.000000	-0.000000	0.000000	0.000000	2.538672	0.090686	0.144754	0.000000	0.000000	0.000000	-0.000000	0.000000	0.000000	2.494661	0.095431	0.123772	0.000000	0.000000	0.000000	-0.000000	0.000000	0.000000	2.462990	0.093276	0.130661	0.000000	0.000000	0.000000	-0.000000	0.000000	0.000000	2.466097	0.087754	0.150280	0.000000	0.000000	0.000000	-0.000000	0.000000	0.000000	2.377603	0.102192	0.102098	0.000000	0.000000	0.000000	-0.000000	0.000000	0.000000	2.433277	0.092520	0.134518	0.000000	0.000000	0.000000	-0.000000	0.000000	0.000000	2.314426	0.089496	0.149942	0.000000	0.000000	0.000000
0.221550	-0.000000	0.000000	-0.000000	1.273378	0.205123	0.450182	0.000000	0.000000	0.000000	-0.000000	0.000000	-0.000000	1.296961	0.224809	0.469182	0.000000	0.000000	0.000000	-0.000000	0.000000	-0.000000	1.312736	0.234374	0.465500	0.000000	0.000000	0.000000	-0.000000	0.000000	-0.000000	1.307702	0.232879	0.443541	0.000000	0.000000	0.000000	-0.000000	0.000000	-0.000000	1.351432	0.273742	0.492482	0.000000	0.000000	0.000000	-0.000000	0.000000	-0.000000	1.323509	0.248027	0.459313	0.000000	0.000000	0.000000	-0.000000	0.000000	-0.000000	1.366603	0.302640	0.434563	0.000000	0.000000	0.000000	-0.000000	0.000000	0.000000	2.557097	0.087726	0.144080	0.000000	0.000000	0.000000	-0.000000	0.000000	0.000000	2.513096	0.092698	0.123290	0.000000	0.000000	0.000000	-0.000000	0.000000	0.000000	2.481631	0.090749	0.130129	0.000000	0.000000	0.000000	-0.000000	0.000000	0.000000	2.484707	0.085140	0.149654	0.000000	0.000000	0.000000	-0.000000	0.000000	0.000000	2.396296	0.099909	0.101719	0.000000	0.000000	0.000000	-0.000000	0.000000	0.000000	2.451914	0.090020	0.133973	0.000000	0.000000	0.000000	-0.000000	0.000000	0.000000	2.333047	0.087103	0.149349	0.000000	0.000000	0.000000
0.223033	-0.000000	0.000000	-0.000000	1.296261	0.206448	0.451027	0.000000	0.000000	0.000000	-0.000000	0.000000	-0.000000	1.319838	0.226164	0.469909	0.000000	0.000000	0.000000	-0.000000	0.000000	-0.000000	1.335562	0.235744	0.466151	0.000000	0.000000	0.000000	-0.000000	0.000000	-0.000000	1.330453	0.234235	0.444213	0.000000	0.000000	0.000000	-0.000000	0.000000	-0.000000	1.374208	0.275160	0.492927	0.000000	0.000000	0.000000	-0.000000	0.000000	-0.000000	1.346261	0.249405	0.459902	0.000000	0.000000	0.000000	-0.000000	0.000000	-0.000000	1.389054	0.304049	0.434907	0.000000	0.000000	0.000000	-0.000000	0.000000	0.000000	2.570052	0.085452	0.143590	0.000000	0.000000	0.000000	-0.000000	0.000000	0.000000	2.526060	0.090598	0.122952	0.000000	0.000000	0.000000	-0.000000	0.000000	0.000000	2.494752	0.088812	0.129765	0.000000	0.000000	0.000000	-0.000000	0.000000	0.000000	2.497803	0.083144	0.149224	0.000000	0.000000	0.000000	-0.000000	0.000000	0.000000	2.409460	0.098170	0.101486	0.000000	0.000000	0.000000	-0.000000	0.000000	0.000000	2.465032	0.088112	0.133610	0.000000	0.000000	0.000000	-0.000000	0.000000	0.000000	2.346153	0.085314	0.148987	0.000000	0.000000	0.000000
0.223680	-0.000000	0.000000	-0.000000	1.306310	0.207002	0.451405	0.000000	0.000000	0.000000	-0.000000	0.000000	-0.000000	1.329879	0.226732	0.470233	0.000000	0.000000	0.000000	-0.000000	0.000000	-0.000000	1.345578	0.236320	0.466441	0.000000	0.000000	0.000000	-0.000000	0.000000	-0.000000	1.340435	0.234805	0.444512	0.000000	0.000000	0.000000	-0.000000	0.000000	-0.000000	1.384192	0.275759	0.493125	0.000000	0.000000	0.000000	-0.000000	0.000000	-0.000000	1.356240	0.249985	0.460164	0.000000	0.000000	0.000000	-0.000000	0.000000	-0.000000	1.398888	0.304645	0.435060	0.000000	0.000000	0.000000	-0.000000	0.000000	0.000000	2.575607	0.084425	0.143376	0.000000	0.000000	0.000000	-0.000000	0.000000	0.000000	2.531619	0.089651	0.122808	0.000000	0.000000	0.000000	-0.000000	0.000000	0.000000	2.500381	0.087939	0.129613	0.000000	0.000000	0.000000	-0.000000	0.000000	0.000000	2.503420	0.082245	0.149044	0.000000	0.000000	0.000000	-0.000000	0.000000	0.000000	2.415108	0.097388	0.101396	0.000000	0.000000	0.000000	-0.000000	0.000000	0.000000	2.470660	0.087255	0.133460	0.000000	0.000000	0.000000	-0.000000	0.000000	0.000000	2.351777	0.084519	0.148849	0.000000	0.000000	0.000000
